<svg width="127" height="135" viewBox="0 0 127 135" fill="none" xmlns="http://www.w3.org/2000/svg">
<path d="M59.6409 0.961426C42.0639 0.961426 25.2429 7.70062 12.7689 19.8686C12.3909 20.243 12.2019 20.8046 12.2019 21.3662C12.2019 21.9278 12.3909 22.3022 12.9579 22.6766C12.9579 22.6766 14.8479 24.1742 17.4939 26.9822C7.28794 37.4654 0.861938 51.6926 0.861938 67.4174C0.861938 81.8318 6.15394 95.6846 15.9819 106.355L13.5249 107.291C12.7689 107.478 12.3909 108.227 12.3909 108.976V132.937C12.3909 134.061 13.1469 134.809 14.2809 134.809H125.035C126.169 134.809 126.925 134.061 126.925 132.937V67.7918V67.6046C126.925 67.6046 126.925 67.6046 126.925 67.4174C126.736 30.7262 96.6849 0.961426 59.6409 0.961426ZM122.956 70.4126V89.3198L15.9819 129.193V110.286L122.956 70.4126ZM58.3179 79.7726C65.1219 79.7726 70.6029 74.3438 70.6029 67.6046C70.6029 60.8654 65.1219 55.4366 58.3179 55.4366C52.6479 55.4366 47.9229 59.1806 46.4109 64.4222C39.4179 47.1998 29.4009 34.4702 22.5969 27.1694C32.4249 18.371 45.2769 12.9422 59.6409 12.9422C90.0699 12.9422 114.64 37.4654 114.64 67.4174C114.64 68.1662 114.64 68.915 114.64 69.6638L53.9709 92.1278C53.2149 86.8862 52.2699 82.019 50.9469 77.339C53.0259 78.8366 55.4829 79.7726 58.3179 79.7726ZM49.8129 67.6046C49.8129 62.9246 53.5929 59.1806 58.3179 59.1806C63.0429 59.1806 66.8229 62.9246 66.8229 67.6046C66.8229 72.2846 63.0429 76.0286 58.3179 76.0286C53.5929 76.0286 49.8129 72.2846 49.8129 67.6046ZM16.9269 21.179C28.6449 10.5086 43.7649 4.70543 59.8299 4.70543C94.4169 4.70543 122.578 32.411 123.145 66.4814L118.42 68.1662C118.42 67.979 118.42 67.6046 118.42 67.4174C118.42 35.219 91.9599 9.19823 59.6409 9.19823C44.3319 9.19823 30.5349 15.0014 20.1399 24.3614C18.8169 23.051 17.6829 21.9278 16.9269 21.179ZM4.64194 67.4174C4.64194 52.8158 10.5009 39.5246 19.9509 29.603C29.5899 40.0862 46.2219 62.1758 50.1909 93.4382L19.5729 104.857C9.93394 94.7486 4.64194 81.4574 4.64194 67.4174ZM21.4629 131.253L122.956 93.4382V131.253H21.4629Z" fill="white"/>
</svg>
