<svg width="166" height="208" viewBox="0 0 166 208" fill="none" xmlns="http://www.w3.org/2000/svg">
<path d="M40.67 67.2256C51.958 67.2256 60.922 58.0736 60.922 46.9248C60.922 35.776 51.792 26.624 40.67 26.624C29.382 26.624 20.418 35.776 20.418 46.9248C20.418 58.0736 29.382 67.2256 40.67 67.2256ZM40.67 29.7856C49.966 29.7856 57.602 37.44 57.602 46.7584C57.602 56.0768 49.966 63.7312 40.67 63.7312C31.374 63.7312 23.738 56.0768 23.738 46.7584C23.738 37.44 31.208 29.7856 40.67 29.7856Z" fill="white"/>
<path d="M147.74 49.0876C147.74 33.7788 135.29 21.2988 120.018 21.2988C104.746 21.2988 92.296 33.7788 92.296 49.0876C92.296 64.3964 104.746 76.8764 120.018 76.8764C135.29 76.8764 147.74 64.3964 147.74 49.0876ZM95.616 50.7516H113.212C114.208 50.7516 114.872 50.086 114.872 49.0876C114.872 48.0892 114.208 47.4236 113.212 47.4236H95.616C95.782 46.0924 95.948 44.9276 96.114 43.5964H118.192C119.188 43.5964 119.852 42.9308 119.852 41.9324C119.852 40.934 119.188 40.2684 118.192 40.2684H97.11C100.596 31.1164 109.56 24.4604 119.852 24.4604C126.99 24.4604 133.464 27.622 137.946 32.614H127.488C126.492 32.614 125.828 33.2796 125.828 34.278C125.828 35.2764 126.492 35.942 127.488 35.942H140.436H140.602C142.926 39.7692 144.42 44.262 144.42 48.9212C144.42 50.5852 144.254 52.4156 143.922 53.9132H121.678C120.682 53.9132 120.018 54.5788 120.018 55.5772C120.018 56.5756 120.682 57.2412 121.678 57.2412H142.926C142.594 58.0732 142.262 58.7388 141.93 59.5708H130.808C129.812 59.5708 129.148 60.2364 129.148 61.2348C129.148 62.2332 129.812 62.8988 130.808 62.8988H139.938C135.456 69.222 128.152 73.382 119.852 73.382C107.07 73.5484 96.446 63.5644 95.616 50.7516Z" fill="white"/>
<path d="M126.824 63.0653C127.82 63.0653 128.484 62.3997 128.484 61.4013C128.484 60.4029 127.82 59.7373 126.824 59.7373H120.35C119.354 59.7373 118.69 60.4029 118.69 61.4013C118.69 62.3997 119.354 63.0653 120.35 63.0653H126.824Z" fill="white"/>
<path d="M114.042 106.829C114.042 85.6963 96.9439 68.5571 75.8619 68.5571C54.7799 68.5571 37.6819 85.6963 37.6819 106.829C37.6819 127.962 54.7799 145.101 75.8619 145.101C96.9439 145.101 114.042 127.962 114.042 106.829ZM99.9319 131.956C99.1019 131.789 98.4379 131.456 97.6079 131.124C94.9519 130.125 92.2959 129.127 86.8179 129.127C81.5059 129.127 78.6839 130.125 76.0279 131.124C73.5379 131.956 71.2139 132.788 66.3999 132.788C61.5859 132.788 59.2619 131.956 56.7719 131.124C54.7799 130.458 52.6219 129.626 49.1359 129.293C45.9819 125.466 43.4919 120.973 42.1639 115.981C46.6459 116.148 48.9699 116.98 51.6259 117.645C54.6139 118.644 57.7679 119.642 63.7439 119.642C69.8859 119.642 72.8739 118.644 75.8619 117.645C78.6839 116.813 81.5059 115.815 86.9839 115.815C92.6279 115.815 95.2839 116.647 98.1059 117.645C100.762 118.477 103.418 119.309 108.066 119.476C106.406 124.468 103.584 128.628 99.9319 131.956ZM50.1319 83.5331C52.4559 83.8659 54.1159 84.3651 55.7759 85.0307C58.4319 86.0291 61.0879 87.0275 66.3999 87.0275C71.7119 87.0275 74.5339 86.0291 77.0239 85.0307C79.5139 84.1987 81.8379 83.3667 86.6519 83.3667C91.4659 83.3667 93.6239 84.1987 95.9479 85.0307C98.1059 85.8627 100.43 86.6947 104.414 86.8611C107.07 90.6883 109.062 95.1811 110.058 100.007C105.576 99.8403 103.086 99.0083 100.43 98.3427C97.4419 97.3443 94.2879 96.3459 88.1459 96.3459C82.0039 96.3459 78.8499 97.3443 75.8619 98.3427C72.8739 99.1747 70.2179 100.173 64.5739 100.173C58.9299 100.173 56.1079 99.3411 53.2859 98.3427C50.6299 97.5107 47.8079 96.6787 42.6619 96.5123C44.1559 91.5203 46.8119 87.1939 50.1319 83.5331ZM52.2899 101.504C55.2779 102.503 58.4319 103.501 64.5739 103.501C70.7159 103.501 73.8699 102.503 76.8579 101.504C79.8459 100.672 82.5019 99.6739 88.1459 99.6739C93.7899 99.6739 96.6119 100.506 99.4339 101.504C102.256 102.336 105.244 103.335 110.556 103.335C110.722 104.5 110.722 105.664 110.722 106.829C110.722 110.157 110.224 113.319 109.394 116.48C104.58 116.314 102.09 115.648 99.4339 114.816C96.4459 113.818 93.2919 112.82 87.3159 112.82C81.1739 112.82 78.1859 113.818 75.1979 114.816C72.3759 115.648 69.5539 116.647 64.0759 116.647C58.4319 116.647 55.7759 115.815 52.9539 114.816C50.1319 113.984 47.1439 112.986 41.8319 112.986C41.4999 110.989 41.3339 108.992 41.3339 106.996C41.3339 104.5 41.6659 102.17 42.1639 99.8403C46.8119 99.8403 49.4679 100.506 52.2899 101.504ZM101.26 83.2003C99.5999 82.8675 98.4379 82.3683 97.1099 81.8691C94.6199 80.8707 91.9639 79.8723 86.6519 79.8723C81.3399 79.8723 78.5179 80.8707 76.0279 81.8691C73.5379 82.7011 71.2139 83.5331 66.3999 83.5331C61.5859 83.5331 59.2619 82.7011 56.7719 81.8691C55.6099 81.3699 54.4479 81.0371 52.9539 80.7043C59.0959 75.3795 67.0639 72.0515 75.8619 72.0515C85.9879 71.8851 94.9519 76.2115 101.26 83.2003ZM53.4519 133.62C54.2819 133.786 54.9459 134.119 55.7759 134.452C58.4319 135.45 61.0879 136.448 66.5659 136.448C71.8779 136.448 74.6999 135.45 77.3559 134.452C79.8459 133.62 82.1699 132.788 86.9839 132.788C91.7979 132.788 94.1219 133.62 96.6119 134.452C96.7779 134.452 96.9439 134.618 97.1099 134.618C91.2999 139.111 83.8299 141.94 75.8619 141.94C67.3959 141.773 59.5939 138.612 53.4519 133.62Z" fill="white"/>
</svg>
