<svg width="203" height="254" viewBox="0 0 203 254" fill="none" xmlns="http://www.w3.org/2000/svg">
<path d="M163.212 75.7934C168.896 65.4302 170.114 56.8958 166.054 51.8158C161.385 45.7198 150.017 45.3134 133.574 50.7998C113.274 38.6078 86.6811 39.0142 66.5841 54.2542C53.9981 63.8046 45.8781 77.6222 43.4421 93.0654C28.6231 101.193 21.1121 109.728 22.3301 117.246C23.3451 122.733 28.6231 127.406 37.5551 130.251C33.9011 138.379 33.6981 144.881 36.7431 149.149C39.3821 152.603 43.8481 154.229 49.9381 154.229C55.0131 154.229 61.1031 153.009 67.8021 150.977C77.9521 158.293 90.1321 161.95 102.515 161.95C115.101 161.95 127.687 158.089 138.446 149.961C150.22 141.021 158.137 128.422 161.182 113.995C174.986 106.477 182.903 97.9422 181.482 90.0174C180.67 83.1086 174.783 78.6382 163.212 75.7934ZM162.806 54.2542C165.851 58.3182 164.43 65.6334 158.949 74.9806C157.934 74.7774 156.919 74.5742 155.904 74.5742C155.904 74.5742 155.904 74.5742 155.701 74.5742C154.077 71.7294 152.453 68.8846 150.423 66.0398C146.769 61.163 142.506 57.099 137.837 53.6446C150.626 49.987 159.761 50.1902 162.806 54.2542ZM158.137 109.728C158.137 110.134 157.934 110.744 157.934 111.15C147.175 116.637 132.559 121.717 115.101 125.374C116.319 124.561 117.537 123.545 118.755 122.733C134.183 111.15 147.581 98.1454 156.513 86.1566C158.543 93.8782 159.152 101.803 158.137 109.728ZM69.2231 57.5054C79.1701 49.987 90.9441 46.3294 102.718 46.3294C119.567 46.3294 136.416 54.051 147.378 68.4782C150.423 72.5422 152.859 77.0126 154.686 81.6862C145.754 94.0814 132.153 107.493 116.116 119.685C112.462 122.529 108.808 124.968 105.357 127.406C86.6811 130.454 68.8171 131.267 54.4041 129.641C48.3141 119.075 45.8781 106.68 47.7051 94.2846C49.7351 79.451 57.4491 66.4462 69.2231 57.5054ZM96.8311 132.689C86.6811 138.785 77.1401 143.459 69.0201 146.304C65.1631 143.256 61.5091 139.801 58.2611 135.534C57.8551 134.925 57.4491 134.518 57.0431 133.909C61.3061 134.315 65.7721 134.518 70.4411 134.518C78.7641 134.518 87.6961 133.909 96.8311 132.689ZM49.3291 128.829C47.2991 128.422 45.4721 128.016 43.6451 127.609C44.4571 125.984 45.4721 124.358 46.6901 122.529C47.5021 124.765 48.3141 126.797 49.3291 128.829ZM26.5931 116.433C25.7811 111.353 31.8711 104.445 43.0361 97.9422C42.6301 104.648 43.2391 111.15 44.8631 117.449C42.6301 120.497 40.8031 123.545 39.3821 126.39C31.8711 124.155 27.4051 120.701 26.5931 116.433ZM40.3971 146.71C38.1641 143.662 38.7731 138.379 41.8181 131.47C44.4571 132.08 47.2991 132.689 50.1411 133.096C50.7501 133.096 51.1561 133.299 51.7651 133.299C52.7801 134.925 53.7951 136.55 55.0131 137.973C57.8551 141.63 60.9001 144.881 64.3511 147.726C52.3741 151.384 43.6451 150.977 40.3971 146.71ZM136.416 146.507C117.334 160.934 91.9591 161.137 73.0801 148.945C83.4331 145.085 95.0041 138.989 106.778 131.064H106.981C126.469 127.813 143.724 122.326 156.716 116.027C153.468 128.422 146.566 138.989 136.416 146.507ZM162.197 108.915C163.212 99.771 162.197 90.627 159.152 82.2958C159.761 81.483 160.37 80.467 160.979 79.6542C171.332 81.8894 176.813 85.547 177.828 90.627C178.843 95.9102 173.159 102.413 162.197 108.915Z" fill="white"/>
<path d="M61.103 111.963C61.306 111.963 61.509 111.963 61.915 111.76C62.93 111.354 63.539 110.134 63.133 109.118C58.058 96.3167 61.712 81.8895 72.268 72.9487C73.08 72.1359 73.283 70.9167 72.471 70.1039C71.659 69.2911 70.441 69.0879 69.629 69.9007C57.855 79.8575 53.795 96.1135 59.479 110.541C59.682 111.354 60.291 111.963 61.103 111.963Z" fill="white"/>
</svg>
